<svg id="Layer_1" data-name="Layer 1" xmlns="http://www.w3.org/2000/svg" xmlns:xlink="http://www.w3.org/1999/xlink" viewBox="0 0 1280 1280"><defs><style>.cls-1{fill:url(#linear-gradient);}.cls-2{fill:#0d7e05;}.cls-3{fill:#fa9700;}</style><linearGradient id="linear-gradient" x1="496.72" y1="264.96" x2="491.52" y2="1012.47" gradientUnits="userSpaceOnUse"><stop offset="0" stop-color="#87c603"/><stop offset="1" stop-color="#0d7e05"/></linearGradient></defs><title>Artboard 1</title><path class="cls-1" d="M604.24,205.57s-55.41,200,164.86,283.78H134a35.14,35.14,0,0,0-35.14,35.14v4.05A35.14,35.14,0,0,0,134,563.68h35.89A35.14,35.14,0,0,1,204,590.52l78.85,324.69A35.14,35.14,0,0,0,317,942.05H577.5a35.14,35.14,0,0,0,32-49.58h0a35.14,35.14,0,0,0-32-20.69H378.35a35.14,35.14,0,0,1-33.89-25.85L278.6,605.51a35.14,35.14,0,0,1,34-44.42l479.27,1.21A35.06,35.06,0,0,0,813.39,555c30.13-23.29,111.73-103.62,63.83-262.93,0,0-83.78,51.35-95.95,124.32C781.27,416.38,761,265,604.24,205.57Z"/><path class="cls-2" d="M992.08,554.3,1038.67,390a36.58,36.58,0,0,1,34.84-26.6l57.18-.56a36.07,36.07,0,0,0,35.72-36.07h0a36.07,36.07,0,0,0-36.07-36.07H1019.7a36.58,36.58,0,0,0-35.18,26.56L928.57,513.68l47.3-44.59Z"/><path class="cls-3" d="M683,942.05s-57.63-22.7-14.49-135.78a370.47,370.47,0,0,1,94.18-139L975.86,469.08s107.14,421-195.86,473c0,0,24.92-97.05,112-249.05,0,0-106,122-151,254C741,947,691.6,947.59,683,942.05Z"/><path class="cls-2" d="M330.76,603.73c25.56-3.67,319.47-40.36,268.86,224.09a1.75,1.75,0,0,1-2.94.92L445,680.58a1.75,1.75,0,0,0-2.6,2.32L554.88,828.26a1.74,1.74,0,0,1-1.37,2.81c-25.86.08-187.77-8.17-224.22-225.32A1.75,1.75,0,0,1,330.76,603.73Z"/></svg>