<svg width="19" height="19" viewBox="0 0 19 19" fill="none" xmlns="http://www.w3.org/2000/svg">
<path d="M17.0254 9.24187C17.0254 8.68153 16.981 8.11815 16.8863 7.56689H9.28662V10.7412H13.6386C13.458 11.7649 12.8777 12.6706 12.0281 13.2461V15.3057H14.6245C16.1491 13.87 17.0254 11.7498 17.0254 9.24187Z" fill="#4285F4"/>
<path d="M9.31914 17.0254C11.4051 17.0254 13.1642 16.3661 14.4459 15.2279L11.9536 13.3675C11.2601 13.8216 10.3649 14.0788 9.32198 14.0788C7.30426 14.0788 5.59345 12.7683 4.97961 11.0063H2.40771V12.9242C3.72066 15.4386 6.39486 17.0254 9.31914 17.0254Z" fill="#34A853"/>
<path d="M4.98733 10.7531C4.6588 9.80172 4.6588 8.77157 4.98733 7.82022V5.84717H2.38214C1.26975 8.01162 1.26975 10.5617 2.38214 12.7261L4.98733 10.7531Z" fill="#FBBC04"/>
<path d="M9.29151 4.49338C10.3898 4.47698 11.4512 4.87621 12.2466 5.60905L14.4459 3.48436C13.0533 2.22103 11.2049 1.52648 9.29151 1.54835C6.37892 1.54835 3.71541 3.13435 2.40771 5.65007L4.9665 7.56693C5.57506 5.8032 7.28185 4.49338 9.29151 4.49338Z" fill="#EA4335"/>
</svg>
